<svg width="189" height="47" viewBox="0 0 189 47" fill="none" xmlns="http://www.w3.org/2000/svg">
<path d="M19.0941 30.8677V35.6412H4.14114V30.8677H19.0941ZM6.11991 5.93926V35.6412H0V5.93926H6.11991Z" fill="#FF0000"/>
<path d="M45.6545 20.0967V21.5042C45.6545 23.7618 45.3485 25.7882 44.7366 27.5833C44.1246 29.3785 43.261 30.9085 42.1458 32.1733C41.0306 33.4245 39.6978 34.3832 38.1474 35.0496C36.6107 35.716 34.9039 36.0492 33.0271 36.0492C31.164 36.0492 29.4572 35.716 27.9068 35.0496C26.37 34.3832 25.0372 33.4245 23.9085 32.1733C22.7797 30.9085 21.9025 29.3785 21.2769 27.5833C20.6649 25.7882 20.3589 23.7618 20.3589 21.5042V20.0967C20.3589 17.8255 20.6649 15.7991 21.2769 14.0175C21.8889 12.2224 22.7525 10.6924 23.8677 9.42761C24.9964 8.16283 26.3292 7.19724 27.866 6.53085C29.4164 5.86446 31.1232 5.53126 32.9863 5.53126C34.8631 5.53126 36.5699 5.86446 38.1066 6.53085C39.657 7.19724 40.9898 8.16283 42.105 9.42761C43.2338 10.6924 44.1042 12.2224 44.7162 14.0175C45.3417 15.7991 45.6545 17.8255 45.6545 20.0967ZM39.4734 21.5042V20.0559C39.4734 18.4783 39.3306 17.0911 39.045 15.8943C38.7594 14.6975 38.3378 13.6911 37.7803 12.8752C37.2227 12.0592 36.5427 11.4472 35.7403 11.0392C34.9379 10.6176 34.0199 10.4068 32.9863 10.4068C31.9527 10.4068 31.0348 10.6176 30.2324 11.0392C29.4436 11.4472 28.7704 12.0592 28.2128 12.8752C27.6688 13.6911 27.254 14.6975 26.9684 15.8943C26.6828 17.0911 26.54 18.4783 26.54 20.0559V21.5042C26.54 23.0682 26.6828 24.4554 26.9684 25.6658C27.254 26.8626 27.6756 27.8757 28.2332 28.7053C28.7908 29.5213 29.4708 30.1401 30.2732 30.5617C31.0756 30.9833 31.9935 31.1941 33.0271 31.1941C34.0607 31.1941 34.9787 30.9833 35.7811 30.5617C36.5835 30.1401 37.2567 29.5213 37.8007 28.7053C38.3446 27.8757 38.7594 26.8626 39.045 25.6658C39.3306 24.4554 39.4734 23.0682 39.4734 21.5042Z" fill="#FF0000"/>
<path d="M73.6021 20.1171V31.8877C73.1397 32.4453 72.4258 33.0505 71.4602 33.7033C70.4946 34.3424 69.2502 34.8932 67.727 35.3556C66.2038 35.818 64.3611 36.0492 62.1987 36.0492C60.2811 36.0492 58.5336 35.7364 56.956 35.1108C55.3784 34.4716 54.0184 33.5401 52.876 32.3161C51.7473 31.0921 50.8769 29.5961 50.2649 27.8281C49.6529 26.0466 49.3469 24.0134 49.3469 21.7286V19.8723C49.3469 17.5875 49.6393 15.5543 50.2241 13.7727C50.8225 11.9912 51.6725 10.4884 52.774 9.26441C53.8756 8.04043 55.188 7.10884 56.7112 6.46965C58.2344 5.83046 59.9275 5.51086 61.7907 5.51086C64.3747 5.51086 66.4962 5.93246 68.1554 6.77565C69.8146 7.60523 71.0794 8.76122 71.9498 10.2436C72.8337 11.7124 73.3777 13.3988 73.5817 15.3027H67.6454C67.4958 14.2963 67.2102 13.4192 66.7886 12.6712C66.367 11.9232 65.7619 11.3384 64.9731 10.9168C64.1979 10.4952 63.1915 10.2844 61.9539 10.2844C60.9339 10.2844 60.0227 10.4952 59.2203 10.9168C58.4316 11.3248 57.7652 11.93 57.2212 12.7324C56.6772 13.5347 56.2624 14.5275 55.9768 15.7107C55.6912 16.8939 55.5484 18.2675 55.5484 19.8315V21.7286C55.5484 23.279 55.698 24.6526 55.9972 25.8494C56.2964 27.0326 56.7384 28.0321 57.3232 28.8481C57.9216 29.6505 58.656 30.2557 59.5263 30.6637C60.3967 31.0717 61.4099 31.2757 62.5659 31.2757C63.5315 31.2757 64.3339 31.1941 64.9731 31.0309C65.6259 30.8677 66.1494 30.6705 66.5438 30.4393C66.9518 30.1945 67.2646 29.9633 67.4822 29.7457V24.4826H61.8927V20.1171H73.6021Z" fill="#FF0000"/>
<path d="M102.937 20.0967V21.5042C102.937 23.7618 102.631 25.7882 102.019 27.5833C101.407 29.3785 100.543 30.9085 99.4282 32.1733C98.313 33.4245 96.9802 34.3832 95.4298 35.0496C93.893 35.716 92.1863 36.0492 90.3095 36.0492C88.4463 36.0492 86.7395 35.716 85.1892 35.0496C83.6524 34.3832 82.3196 33.4245 81.1908 32.1733C80.062 30.9085 79.1849 29.3785 78.5593 27.5833C77.9473 25.7882 77.6413 23.7618 77.6413 21.5042V20.0967C77.6413 17.8255 77.9473 15.7991 78.5593 14.0175C79.1713 12.2224 80.0348 10.6924 81.15 9.42761C82.2788 8.16283 83.6116 7.19724 85.1484 6.53085C86.6987 5.86446 88.4055 5.53126 90.2687 5.53126C92.1455 5.53126 93.8522 5.86446 95.389 6.53085C96.9394 7.19724 98.2722 8.16283 99.3874 9.42761C100.516 10.6924 101.387 12.2224 101.999 14.0175C102.624 15.7991 102.937 17.8255 102.937 20.0967ZM96.7558 21.5042V20.0559C96.7558 18.4783 96.613 17.0911 96.3274 15.8943C96.0418 14.6975 95.6202 13.6911 95.0626 12.8752C94.505 12.0592 93.825 11.4472 93.0227 11.0392C92.2203 10.6176 91.3023 10.4068 90.2687 10.4068C89.2351 10.4068 88.3171 10.6176 87.5147 11.0392C86.7259 11.4472 86.0528 12.0592 85.4952 12.8752C84.9512 13.6911 84.5364 14.6975 84.2508 15.8943C83.9652 17.0911 83.8224 18.4783 83.8224 20.0559V21.5042C83.8224 23.0682 83.9652 24.4554 84.2508 25.6658C84.5364 26.8626 84.958 27.8757 85.5156 28.7053C86.0732 29.5213 86.7531 30.1401 87.5555 30.5617C88.3579 30.9833 89.2759 31.1941 90.3095 31.1941C91.3431 31.1941 92.2611 30.9833 93.0635 30.5617C93.8658 30.1401 94.539 29.5213 95.083 28.7053C95.627 27.8757 96.0418 26.8626 96.3274 25.6658C96.613 24.4554 96.7558 23.0682 96.7558 21.5042Z" fill="#FF0000"/>
<path d="M111.626 32.5914C110.902 35.4323 110.177 37.7441 109.453 39.5266C108.729 41.337 107.949 42.7575 107.114 43.788C106.278 44.8186 105.387 45.5288 104.44 45.9187C103.465 46.3087 102.379 46.5036 101.181 46.5036C100.011 46.5036 99.0504 46.1973 98.2984 45.5845C97.5464 44.9718 97.1704 44.2197 97.1704 43.3285C97.1704 42.6322 97.3515 42.0751 97.7135 41.6573C98.0756 41.2674 98.577 41.0724 99.2176 41.0724C99.8025 41.0724 100.206 41.2256 100.429 41.532C100.652 41.8384 100.847 42.1726 101.014 42.5347C101.153 42.8968 101.32 43.231 101.515 43.5374C101.71 43.8437 102.086 43.9969 102.643 43.9969C103.284 43.9969 103.869 43.6627 104.398 42.9942C104.927 42.3258 105.331 41.4484 105.61 40.3622L111.668 16.8408H107.657L108.2 14.919H112.169C112.782 12.4123 113.45 10.2816 114.174 8.52689C114.898 6.77219 115.678 5.33779 116.514 4.2237C117.349 3.08175 118.241 2.2601 119.188 1.75876C120.135 1.22956 121.151 0.964966 122.238 0.964966C123.881 0.964966 125.232 1.31312 126.29 2.00943C127.348 2.67789 127.878 3.52739 127.878 4.55793C127.878 5.19853 127.697 5.74165 127.335 6.18729C127 6.63293 126.513 6.85575 125.872 6.85575C125.343 6.85575 124.925 6.75827 124.619 6.5633C124.34 6.36833 124.118 6.11766 123.95 5.81128C123.811 5.50491 123.7 5.1846 123.616 4.85038C123.561 4.51615 123.477 4.19584 123.366 3.88947C123.254 3.58309 123.087 3.33242 122.864 3.13745C122.641 2.94249 122.307 2.845 121.862 2.845C121.305 2.845 120.747 3.15138 120.19 3.76413C119.661 4.34903 119.146 5.1846 118.645 6.27085C118.143 7.32924 117.67 8.59652 117.224 10.0727C116.778 11.5489 116.375 13.1643 116.013 14.919H120.232L119.647 16.8408H115.553L111.626 32.5914Z" fill="white"/>
<path d="M126.837 36.059C125.89 36.059 124.999 35.8779 124.164 35.5159C123.356 35.1259 122.646 34.5689 122.033 33.8447C121.42 33.1206 120.933 32.2432 120.571 31.2127C120.209 30.1543 120.028 28.9706 120.028 27.6615C120.028 25.8511 120.362 24.0685 121.03 22.3138C121.727 20.5591 122.632 18.9994 123.746 17.6346C124.86 16.2699 126.127 15.1697 127.548 14.3341C128.996 13.4985 130.486 13.0808 132.018 13.0808C133.021 13.0808 133.94 13.2757 134.775 13.6657C135.639 14.0277 136.363 14.5709 136.948 15.295C137.561 15.9913 138.034 16.8408 138.368 17.8435C138.73 18.8184 138.911 19.9046 138.911 21.1023C138.911 22.857 138.563 24.6256 137.867 26.4081C137.171 28.1907 136.252 29.7922 135.11 31.2127C133.996 32.6331 132.714 33.8029 131.266 34.7221C129.818 35.6134 128.341 36.059 126.837 36.059ZM127.088 33.9701C128.035 33.9701 128.968 33.4826 129.887 32.5078C130.834 31.533 131.67 30.3075 132.394 28.8313C133.146 27.3273 133.745 25.6979 134.19 23.9432C134.664 22.1885 134.901 20.5173 134.901 18.9298C134.901 17.4536 134.636 16.437 134.107 15.8799C133.606 15.3229 132.909 15.0444 132.018 15.0444C131.405 15.0444 130.779 15.2672 130.138 15.7128C129.525 16.1306 128.94 16.7155 128.383 17.4675C127.826 18.2195 127.297 19.083 126.796 20.0578C126.322 21.0326 125.904 22.0632 125.542 23.1494C125.18 24.2356 124.902 25.3497 124.707 26.4917C124.512 27.6058 124.414 28.6781 124.414 29.7086C124.414 31.2684 124.665 32.3685 125.166 33.0092C125.668 33.6498 126.308 33.9701 127.088 33.9701Z" fill="white"/>
<path d="M148.539 6.77219C148.678 6.27085 148.817 5.7695 148.957 5.26816C149.096 4.73897 149.166 4.34903 149.166 4.09836C149.166 3.12353 148.107 2.63611 145.99 2.63611L146.325 1.38275L153.97 1.00674L146.492 28.4553C146.269 29.2073 146.102 29.8758 145.99 30.4607C145.879 31.0177 145.823 31.4912 145.823 31.8811C145.823 32.1318 145.893 32.3546 146.032 32.5496C146.171 32.7446 146.394 32.842 146.701 32.842C147.146 32.842 147.62 32.661 148.121 32.2989C148.622 31.909 149.096 31.4633 149.542 30.962C150.015 30.4328 150.433 29.9036 150.795 29.3744C151.157 28.8174 151.422 28.3857 151.589 28.0793L152.842 28.7895C152.424 29.7365 151.881 30.6556 151.213 31.5469C150.544 32.4103 149.834 33.1763 149.082 33.8447C148.33 34.5132 147.564 35.0563 146.784 35.4741C146.032 35.864 145.336 36.059 144.695 36.059C143.72 36.059 142.996 35.8501 142.523 35.4323C142.077 35.0145 141.854 34.3182 141.854 33.3434C141.854 32.7863 141.938 32.0343 142.105 31.0873C142.272 30.1404 142.564 28.8452 142.982 27.2019L148.539 6.77219Z" fill="white"/>
<path d="M159.463 21.8543C159.853 20.768 160.131 19.8907 160.299 19.2222C160.466 18.5538 160.549 18.0246 160.549 17.6346C160.549 17.2447 160.48 16.994 160.34 16.8826C160.229 16.7433 160.104 16.6737 159.964 16.6737C159.658 16.6737 159.324 16.8269 158.962 17.1333C158.6 17.4118 158.237 17.746 157.875 18.136C157.513 18.5259 157.193 18.9158 156.914 19.3058C156.636 19.6957 156.441 20.0021 156.33 20.2249L155.118 19.4729C155.452 18.8601 155.912 18.1777 156.497 17.4257C157.109 16.6737 157.792 15.9774 158.544 15.3368C159.296 14.6962 160.076 14.167 160.883 13.7492C161.691 13.3036 162.457 13.0808 163.181 13.0808C163.878 13.0808 164.393 13.2897 164.727 13.7074C165.089 14.0974 165.27 14.8215 165.27 15.8799C165.27 16.6876 165.02 17.7739 164.518 19.1387C164.045 20.5034 163.418 22.2581 162.638 24.4028L161.092 28.6224C161.037 28.7617 160.953 28.9845 160.842 29.2909C160.758 29.5694 160.661 29.8758 160.549 30.21C160.466 30.5164 160.382 30.8227 160.299 31.1291C160.243 31.4355 160.215 31.6862 160.215 31.8811C160.215 32.1318 160.285 32.3546 160.424 32.5496C160.563 32.7446 160.786 32.842 161.092 32.842C161.51 32.842 161.942 32.6749 162.387 32.3407C162.833 31.9786 163.265 31.5608 163.683 31.0873C164.1 30.6138 164.476 30.1404 164.811 29.6669C165.145 29.1655 165.396 28.7756 165.563 28.4971L166.816 29.2073C166.482 29.8758 166.022 30.6138 165.437 31.4216C164.88 32.2293 164.24 32.9813 163.515 33.6776C162.791 34.3461 161.998 34.917 161.134 35.3905C160.271 35.8362 159.379 36.059 158.46 36.059C157.653 36.059 157.04 35.8501 156.622 35.4323C156.232 35.0145 156.037 34.3182 156.037 33.3434C156.037 32.5357 156.162 31.6722 156.413 30.7531C156.692 29.8061 157.082 28.6224 157.583 27.2019L159.463 21.8543ZM165.604 6.22907C164.908 6.22907 164.295 5.99232 163.766 5.51883C163.265 5.04534 163.014 4.43259 163.014 3.68057C163.014 2.92856 163.265 2.28795 163.766 1.75876C164.267 1.22956 164.88 0.964966 165.604 0.964966C166.384 0.964966 167.025 1.22956 167.526 1.75876C168.028 2.28795 168.278 2.91463 168.278 3.6388C168.278 4.36296 168.014 4.97571 167.484 5.47705C166.955 5.9784 166.329 6.22907 165.604 6.22907Z" fill="white"/>
<path d="M176.164 36.059C175.217 36.059 174.326 35.8779 173.49 35.5159C172.682 35.1259 171.972 34.5689 171.359 33.8447C170.747 33.1206 170.259 32.2432 169.897 31.2127C169.535 30.1543 169.354 28.9706 169.354 27.6615C169.354 25.8511 169.688 24.0685 170.357 22.3138C171.053 20.5591 171.958 18.9994 173.072 17.6346C174.186 16.2699 175.454 15.1697 176.874 14.3341C178.323 13.4985 179.813 13.0808 181.344 13.0808C182.347 13.0808 183.266 13.2757 184.102 13.6657C184.965 14.0277 185.689 14.5709 186.274 15.295C186.887 15.9913 187.361 16.8408 187.695 17.8435C188.057 18.8184 188.238 19.9046 188.238 21.1023C188.238 22.857 187.89 24.6256 187.194 26.4081C186.497 28.1907 185.578 29.7922 184.436 31.2127C183.322 32.6331 182.041 33.8029 180.592 34.7221C179.144 35.6134 177.668 36.059 176.164 36.059ZM176.415 33.9701C177.362 33.9701 178.295 33.4826 179.214 32.5078C180.161 31.533 180.996 30.3075 181.72 28.8313C182.473 27.3273 183.071 25.6979 183.517 23.9432C183.99 22.1885 184.227 20.5173 184.227 18.9298C184.227 17.4536 183.963 16.437 183.433 15.8799C182.932 15.3229 182.236 15.0444 181.344 15.0444C180.732 15.0444 180.105 15.2672 179.464 15.7128C178.852 16.1306 178.267 16.7155 177.71 17.4675C177.153 18.2195 176.624 19.083 176.122 20.0578C175.649 21.0326 175.231 22.0632 174.869 23.1494C174.507 24.2356 174.228 25.3497 174.033 26.4917C173.838 27.6058 173.741 28.6781 173.741 29.7086C173.741 31.2684 173.991 32.3685 174.493 33.0092C174.994 33.6498 175.635 33.9701 176.415 33.9701Z" fill="white"/>
</svg>
