<svg width="189" height="46" viewBox="0 0 189 46" fill="none" xmlns="http://www.w3.org/2000/svg">
<path d="M19.0941 29.9027V34.6762H4.14114V29.9027H19.0941ZM6.11991 4.97423V34.6762H0V4.97423H6.11991Z" fill="#FF0000"/>
<path d="M45.6545 19.1316V20.5392C45.6545 22.7968 45.3485 24.8231 44.7366 26.6183C44.1246 28.4135 43.261 29.9435 42.1458 31.2083C41.0306 32.4594 39.6978 33.4182 38.1474 34.0846C36.6107 34.751 34.9039 35.0842 33.0271 35.0842C31.164 35.0842 29.4572 34.751 27.9068 34.0846C26.37 33.4182 25.0372 32.4594 23.9085 31.2083C22.7797 29.9435 21.9025 28.4135 21.2769 26.6183C20.6649 24.8231 20.3589 22.7968 20.3589 20.5392V19.1316C20.3589 16.8605 20.6649 14.8341 21.2769 13.0525C21.8889 11.2573 22.7525 9.72736 23.8677 8.46258C24.9964 7.1978 26.3292 6.23221 27.866 5.56582C29.4164 4.89943 31.1232 4.56624 32.9863 4.56624C34.8631 4.56624 36.5699 4.89943 38.1066 5.56582C39.657 6.23221 40.9898 7.1978 42.105 8.46258C43.2338 9.72736 44.1042 11.2573 44.7162 13.0525C45.3417 14.8341 45.6545 16.8605 45.6545 19.1316ZM39.4734 20.5392V19.0908C39.4734 17.5133 39.3306 16.1261 39.045 14.9293C38.7594 13.7325 38.3378 12.7261 37.7803 11.9101C37.2227 11.0941 36.5427 10.4822 35.7403 10.0742C34.9379 9.65256 34.0199 9.44177 32.9863 9.44177C31.9527 9.44177 31.0348 9.65256 30.2324 10.0742C29.4436 10.4822 28.7704 11.0941 28.2128 11.9101C27.6688 12.7261 27.254 13.7325 26.9684 14.9293C26.6828 16.1261 26.54 17.5133 26.54 19.0908V20.5392C26.54 22.1032 26.6828 23.4904 26.9684 24.7007C27.254 25.8975 27.6756 26.9107 28.2332 27.7403C28.7908 28.5563 29.4708 29.1751 30.2732 29.5967C31.0756 30.0183 31.9935 30.2291 33.0271 30.2291C34.0607 30.2291 34.9787 30.0183 35.7811 29.5967C36.5835 29.1751 37.2567 28.5563 37.8007 27.7403C38.3446 26.9107 38.7594 25.8975 39.045 24.7007C39.3306 23.4904 39.4734 22.1032 39.4734 20.5392Z" fill="#FF0000"/>
<path d="M73.6021 19.152V30.9227C73.1397 31.4802 72.4258 32.0854 71.4602 32.7382C70.4946 33.3774 69.2502 33.9282 67.727 34.3906C66.2038 34.853 64.3611 35.0842 62.1987 35.0842C60.2811 35.0842 58.5336 34.7714 56.956 34.1458C55.3784 33.5066 54.0184 32.575 52.876 31.3511C51.7473 30.1271 50.8769 28.6311 50.2649 26.8631C49.6529 25.0815 49.3469 23.0484 49.3469 20.7636V18.9072C49.3469 16.6225 49.6393 14.5893 50.2241 12.8077C50.8225 11.0261 51.6725 9.52337 52.774 8.29938C53.8756 7.0754 55.188 6.14381 56.7112 5.50462C58.2344 4.86543 59.9275 4.54584 61.7907 4.54584C64.3747 4.54584 66.4962 4.96743 68.1554 5.81062C69.8146 6.64021 71.0794 7.79619 71.9498 9.27857C72.8337 10.7473 73.3777 12.4337 73.5817 14.3377H67.6454C67.4958 13.3313 67.2102 12.4541 66.7886 11.7061C66.367 10.9581 65.7619 10.3734 64.9731 9.95176C64.1979 9.53017 63.1915 9.31937 61.9539 9.31937C60.9339 9.31937 60.0227 9.53017 59.2203 9.95176C58.4316 10.3598 57.7652 10.9649 57.2212 11.7673C56.6772 12.5697 56.2624 13.5625 55.9768 14.7457C55.6912 15.9289 55.5484 17.3025 55.5484 18.8664V20.7636C55.5484 22.314 55.698 23.6876 55.9972 24.8843C56.2964 26.0675 56.7384 27.0671 57.3232 27.8831C57.9216 28.6855 58.656 29.2907 59.5263 29.6987C60.3967 30.1067 61.4099 30.3107 62.5659 30.3107C63.5315 30.3107 64.3339 30.2291 64.9731 30.0659C65.6259 29.9027 66.1494 29.7055 66.5438 29.4743C66.9518 29.2295 67.2646 28.9983 67.4822 28.7807V23.5176H61.8927V19.152H73.6021Z" fill="#FF0000"/>
<path d="M102.937 19.1316V20.5392C102.937 22.7968 102.631 24.8231 102.019 26.6183C101.407 28.4135 100.543 29.9435 99.4282 31.2083C98.313 32.4594 96.9802 33.4182 95.4298 34.0846C93.893 34.751 92.1863 35.0842 90.3095 35.0842C88.4463 35.0842 86.7395 34.751 85.1892 34.0846C83.6524 33.4182 82.3196 32.4594 81.1908 31.2083C80.062 29.9435 79.1849 28.4135 78.5593 26.6183C77.9473 24.8231 77.6413 22.7968 77.6413 20.5392V19.1316C77.6413 16.8605 77.9473 14.8341 78.5593 13.0525C79.1713 11.2573 80.0348 9.72736 81.15 8.46258C82.2788 7.1978 83.6116 6.23221 85.1484 5.56582C86.6987 4.89943 88.4055 4.56624 90.2687 4.56624C92.1455 4.56624 93.8522 4.89943 95.389 5.56582C96.9394 6.23221 98.2722 7.1978 99.3874 8.46258C100.516 9.72736 101.387 11.2573 101.999 13.0525C102.624 14.8341 102.937 16.8605 102.937 19.1316ZM96.7558 20.5392V19.0908C96.7558 17.5133 96.613 16.1261 96.3274 14.9293C96.0418 13.7325 95.6202 12.7261 95.0626 11.9101C94.505 11.0941 93.825 10.4822 93.0227 10.0742C92.2203 9.65256 91.3023 9.44177 90.2687 9.44177C89.2351 9.44177 88.3171 9.65256 87.5147 10.0742C86.7259 10.4822 86.0528 11.0941 85.4952 11.9101C84.9512 12.7261 84.5364 13.7325 84.2508 14.9293C83.9652 16.1261 83.8224 17.5133 83.8224 19.0908V20.5392C83.8224 22.1032 83.9652 23.4904 84.2508 24.7007C84.5364 25.8975 84.958 26.9107 85.5156 27.7403C86.0732 28.5563 86.7531 29.1751 87.5555 29.5967C88.3579 30.0183 89.2759 30.2291 90.3095 30.2291C91.3431 30.2291 92.2611 30.0183 93.0635 29.5967C93.8658 29.1751 94.539 28.5563 95.083 27.7403C95.627 26.9107 96.0418 25.8975 96.3274 24.7007C96.613 23.4904 96.7558 22.1032 96.7558 20.5392Z" fill="#FF0000"/>
<path d="M111.626 31.6264C110.902 34.4673 110.177 36.7791 109.453 38.5616C108.729 40.3721 107.949 41.7925 107.114 42.8231C106.278 43.8536 105.387 44.5638 104.44 44.9538C103.465 45.3437 102.379 45.5387 101.181 45.5387C100.011 45.5387 99.0504 45.2323 98.2984 44.6195C97.5464 44.0068 97.1704 43.2548 97.1704 42.3635C97.1704 41.6672 97.3515 41.1101 97.7135 40.6924C98.0756 40.3024 98.577 40.1075 99.2176 40.1075C99.8025 40.1075 100.206 40.2606 100.429 40.567C100.652 40.8734 100.847 41.2076 101.014 41.5697C101.153 41.9318 101.32 42.266 101.515 42.5724C101.71 42.8788 102.086 43.032 102.643 43.032C103.284 43.032 103.869 42.6977 104.398 42.0293C104.927 41.3608 105.331 40.4835 105.61 39.3972L111.668 15.8759H107.657L108.2 13.9541H112.169C112.782 11.4473 113.45 9.31663 114.174 7.56193C114.898 5.80723 115.678 4.37283 116.514 3.25873C117.349 2.11678 118.241 1.29514 119.188 0.793793C120.135 0.264598 121.151 0 122.238 0C123.881 0 125.232 0.348155 126.29 1.04446C127.348 1.71292 127.878 2.56242 127.878 3.59296C127.878 4.23357 127.697 4.77669 127.335 5.22232C127 5.66796 126.513 5.89078 125.872 5.89078C125.343 5.89078 124.925 5.7933 124.619 5.59833C124.34 5.40337 124.118 5.15269 123.95 4.84632C123.811 4.53994 123.7 4.21964 123.616 3.88541C123.561 3.55118 123.477 3.23088 123.366 2.9245C123.254 2.61813 123.087 2.36745 122.864 2.17249C122.641 1.97752 122.307 1.88004 121.862 1.88004C121.305 1.88004 120.747 2.18641 120.19 2.79917C119.661 3.38407 119.146 4.21964 118.645 5.30588C118.143 6.36427 117.67 7.63156 117.224 9.10773C116.778 10.5839 116.375 12.1994 116.013 13.9541H120.232L119.647 15.8759H115.553L111.626 31.6264Z" fill="black"/>
<path d="M126.837 35.094C125.89 35.094 124.999 34.913 124.164 34.5509C123.356 34.161 122.646 33.6039 122.033 32.8798C121.42 32.1556 120.933 31.2782 120.571 30.2477C120.209 29.1893 120.028 28.0056 120.028 26.6965C120.028 24.8861 120.362 23.1036 121.03 21.3489C121.727 19.5942 122.632 18.0344 123.746 16.6697C124.86 15.3049 126.127 14.2047 127.548 13.3691C128.996 12.5336 130.486 12.1158 132.018 12.1158C133.021 12.1158 133.94 12.3108 134.775 12.7007C135.639 13.0628 136.363 13.6059 136.948 14.3301C137.561 15.0264 138.034 15.8759 138.368 16.8786C138.73 17.8534 138.911 18.9396 138.911 20.1373C138.911 21.892 138.563 23.6606 137.867 25.4432C137.171 27.2257 136.252 28.8272 135.11 30.2477C133.996 31.6682 132.714 32.838 131.266 33.7571C129.818 34.6484 128.341 35.094 126.837 35.094ZM127.088 33.0051C128.035 33.0051 128.968 32.5177 129.887 31.5428C130.834 30.568 131.67 29.3425 132.394 27.8663C133.146 26.3623 133.745 24.7329 134.19 22.9782C134.664 21.2235 134.901 19.5524 134.901 17.9648C134.901 16.4886 134.636 15.472 134.107 14.915C133.606 14.3579 132.909 14.0794 132.018 14.0794C131.405 14.0794 130.779 14.3022 130.138 14.7478C129.525 15.1656 128.94 15.7505 128.383 16.5025C127.826 17.2546 127.297 18.118 126.796 19.0928C126.322 20.0677 125.904 21.0982 125.542 22.1844C125.18 23.2707 124.902 24.3848 124.707 25.5267C124.512 26.6408 124.414 27.7131 124.414 28.7437C124.414 30.3034 124.665 31.4036 125.166 32.0442C125.668 32.6848 126.308 33.0051 127.088 33.0051Z" fill="black"/>
<path d="M148.539 5.80722C148.678 5.30588 148.817 4.80454 148.957 4.30319C149.096 3.774 149.166 3.38407 149.166 3.13339C149.166 2.15856 148.107 1.67114 145.99 1.67114L146.325 0.417786L153.97 0.0417781L146.492 27.4903C146.269 28.2423 146.102 28.9108 145.99 29.4957C145.879 30.0527 145.823 30.5262 145.823 30.9162C145.823 31.1668 145.893 31.3897 146.032 31.5846C146.171 31.7796 146.394 31.8771 146.701 31.8771C147.146 31.8771 147.62 31.696 148.121 31.3339C148.622 30.944 149.096 30.4984 149.542 29.997C150.015 29.4678 150.433 28.9386 150.795 28.4094C151.157 27.8524 151.422 27.4207 151.589 27.1143L152.842 27.8245C152.424 28.7715 151.881 29.6907 151.213 30.5819C150.544 31.4454 149.834 32.2113 149.082 32.8798C148.33 33.5482 147.564 34.0913 146.784 34.5091C146.032 34.8991 145.336 35.094 144.695 35.094C143.72 35.094 142.996 34.8851 142.523 34.4673C142.077 34.0496 141.854 33.3533 141.854 32.3784C141.854 31.8214 141.938 31.0694 142.105 30.1224C142.272 29.1754 142.564 27.8803 142.982 26.237L148.539 5.80722Z" fill="black"/>
<path d="M159.463 20.8893C159.853 19.8031 160.131 18.9257 160.299 18.2572C160.466 17.5888 160.549 17.0596 160.549 16.6697C160.549 16.2797 160.48 16.0291 160.34 15.9176C160.229 15.7784 160.104 15.7088 159.964 15.7088C159.658 15.7088 159.324 15.8619 158.962 16.1683C158.6 16.4468 158.237 16.7811 157.875 17.171C157.513 17.5609 157.193 17.9509 156.914 18.3408C156.636 18.7307 156.441 19.0371 156.33 19.2599L155.118 18.5079C155.452 17.8952 155.912 17.2128 156.497 16.4608C157.109 15.7088 157.792 15.0124 158.544 14.3718C159.296 13.7312 160.076 13.202 160.883 12.7843C161.691 12.3386 162.457 12.1158 163.181 12.1158C163.878 12.1158 164.393 12.3247 164.727 12.7425C165.089 13.1324 165.27 13.8566 165.27 14.915C165.27 15.7227 165.02 16.8089 164.518 18.1737C164.045 19.5385 163.418 21.2932 162.638 23.4378L161.092 27.6574C161.037 27.7967 160.953 28.0195 160.842 28.3259C160.758 28.6044 160.661 28.9108 160.549 29.245C160.466 29.5514 160.382 29.8578 160.299 30.1641C160.243 30.4705 160.215 30.7212 160.215 30.9162C160.215 31.1668 160.285 31.3897 160.424 31.5846C160.563 31.7796 160.786 31.8771 161.092 31.8771C161.51 31.8771 161.942 31.71 162.387 31.3757C162.833 31.0136 163.265 30.5959 163.683 30.1224C164.1 29.6489 164.476 29.1754 164.811 28.7019C165.145 28.2006 165.396 27.8106 165.563 27.5321L166.816 28.2423C166.482 28.9108 166.022 29.6489 165.437 30.4566C164.88 31.2643 164.24 32.0163 163.515 32.7126C162.791 33.3811 161.998 33.9521 161.134 34.4256C160.271 34.8712 159.379 35.094 158.46 35.094C157.653 35.094 157.04 34.8851 156.622 34.4673C156.232 34.0496 156.037 33.3533 156.037 32.3784C156.037 31.5707 156.162 30.7073 156.413 29.7881C156.692 28.8412 157.082 27.6574 157.583 26.237L159.463 20.8893ZM165.604 5.2641C164.908 5.2641 164.295 5.02736 163.766 4.55387C163.265 4.08038 163.014 3.46762 163.014 2.71561C163.014 1.96359 163.265 1.32299 163.766 0.793793C164.267 0.264598 164.88 0 165.604 0C166.384 0 167.025 0.264598 167.526 0.793793C168.028 1.32299 168.278 1.94967 168.278 2.67383C168.278 3.39799 168.014 4.01075 167.484 4.51209C166.955 5.01343 166.329 5.2641 165.604 5.2641Z" fill="black"/>
<path d="M176.164 35.094C175.217 35.094 174.326 34.913 173.49 34.5509C172.682 34.161 171.972 33.6039 171.359 32.8798C170.747 32.1556 170.259 31.2782 169.897 30.2477C169.535 29.1893 169.354 28.0056 169.354 26.6965C169.354 24.8861 169.688 23.1036 170.357 21.3489C171.053 19.5942 171.958 18.0344 173.072 16.6697C174.186 15.3049 175.454 14.2047 176.874 13.3691C178.323 12.5336 179.813 12.1158 181.344 12.1158C182.347 12.1158 183.266 12.3108 184.102 12.7007C184.965 13.0628 185.689 13.6059 186.274 14.3301C186.887 15.0264 187.361 15.8759 187.695 16.8786C188.057 17.8534 188.238 18.9396 188.238 20.1373C188.238 21.892 187.89 23.6606 187.194 25.4432C186.497 27.2257 185.578 28.8272 184.436 30.2477C183.322 31.6682 182.041 32.838 180.592 33.7571C179.144 34.6484 177.668 35.094 176.164 35.094ZM176.415 33.0051C177.362 33.0051 178.295 32.5177 179.214 31.5428C180.161 30.568 180.996 29.3425 181.72 27.8663C182.473 26.3623 183.071 24.7329 183.517 22.9782C183.99 21.2235 184.227 19.5524 184.227 17.9648C184.227 16.4886 183.963 15.472 183.433 14.915C182.932 14.3579 182.236 14.0794 181.344 14.0794C180.732 14.0794 180.105 14.3022 179.464 14.7478C178.852 15.1656 178.267 15.7505 177.71 16.5025C177.153 17.2546 176.624 18.118 176.122 19.0928C175.649 20.0677 175.231 21.0982 174.869 22.1844C174.507 23.2707 174.228 24.3848 174.033 25.5267C173.838 26.6408 173.741 27.7131 173.741 28.7437C173.741 30.3034 173.991 31.4036 174.493 32.0442C174.994 32.6848 175.635 33.0051 176.415 33.0051Z" fill="black"/>
</svg>
